<svg width="141" height="25" fill="none" xmlns="http://www.w3.org/2000/svg"><path opacity=".8" d="M45.66 16.36h4.48V19h-7.9V4.96h3.42v11.4Zm5.431-2.96c0-1.147.214-2.153.64-3.02.44-.867 1.034-1.533 1.78-2a4.62 4.62 0 0 1 2.5-.7c.787 0 1.474.16 2.06.48.6.32 1.06.74 1.38 1.26V7.84h3.42V19h-3.42v-1.58c-.333.52-.8.94-1.4 1.26-.586.32-1.273.48-2.06.48a4.585 4.585 0 0 1-2.48-.7c-.746-.48-1.34-1.153-1.78-2.02-.426-.88-.64-1.893-.64-3.04Zm8.36.02c0-.853-.24-1.527-.72-2.02a2.275 2.275 0 0 0-1.72-.74c-.68 0-1.26.247-1.74.74-.466.48-.7 1.147-.7 2s.234 1.533.7 2.04c.48.493 1.06.74 1.74.74.68 0 1.254-.247 1.72-.74.48-.493.72-1.167.72-2.02Zm12.694-5.7c1.307 0 2.347.427 3.12 1.28.787.84 1.18 2 1.18 3.48V19h-3.4v-6.06c0-.747-.193-1.327-.58-1.74-.386-.413-.906-.62-1.56-.62-.653 0-1.173.207-1.56.62-.386.413-.58.993-.58 1.74V19h-3.42V7.84h3.42v1.48a3.53 3.53 0 0 1 1.4-1.16c.587-.293 1.247-.44 1.98-.44Zm5.997 5.68c0-1.147.213-2.153.64-3.02.44-.867 1.033-1.533 1.78-2a4.62 4.62 0 0 1 2.5-.7c.733 0 1.4.153 2 .46.613.307 1.093.72 1.44 1.24V4.2h3.42V19h-3.42v-1.6c-.32.533-.78.96-1.38 1.28-.587.32-1.273.48-2.06.48a4.62 4.62 0 0 1-2.5-.7c-.747-.48-1.34-1.153-1.78-2.02-.427-.88-.64-1.893-.64-3.04Zm8.36.02c0-.853-.24-1.527-.72-2.02a2.275 2.275 0 0 0-1.72-.74c-.68 0-1.26.247-1.74.74-.467.48-.7 1.147-.7 2s.233 1.533.7 2.04c.48.493 1.06.74 1.74.74.68 0 1.253-.247 1.72-.74.48-.493.72-1.167.72-2.02Zm10.134-5.74c.787 0 1.474.16 2.06.48.6.32 1.06.74 1.38 1.26V7.84h3.42v11.14c0 1.027-.206 1.953-.62 2.78-.4.84-1.02 1.507-1.86 2-.826.493-1.86.74-3.1.74-1.653 0-2.993-.393-4.02-1.18-1.026-.773-1.613-1.827-1.76-3.16h3.38c.107.427.36.76.76 1 .4.253.894.38 1.48.38.707 0 1.267-.207 1.68-.62.427-.4.64-1.047.64-1.94V17.4c-.333.52-.793.947-1.38 1.28-.586.32-1.273.48-2.06.48a4.62 4.62 0 0 1-2.5-.7c-.746-.48-1.34-1.153-1.78-2.02-.426-.88-.64-1.893-.64-3.04s.214-2.153.64-3.02c.44-.867 1.034-1.533 1.78-2a4.62 4.62 0 0 1 2.5-.7Zm3.44 5.74c0-.853-.24-1.527-.72-2.02a2.275 2.275 0 0 0-1.72-.74c-.68 0-1.26.247-1.74.74-.466.48-.7 1.147-.7 2s.234 1.533.7 2.04c.48.493 1.06.74 1.74.74.68 0 1.254-.247 1.72-.74.48-.493.72-1.167.72-2.02Zm16.914-5.58V19h-3.42v-1.52c-.346.493-.82.893-1.42 1.2a4.32 4.32 0 0 1-1.96.44c-.853 0-1.606-.187-2.26-.56-.653-.387-1.16-.94-1.52-1.66-.36-.72-.54-1.567-.54-2.54V7.84h3.4v6.06c0 .747.194 1.327.58 1.74.387.413.907.62 1.56.62.667 0 1.194-.207 1.58-.62.387-.413.58-.993.58-1.74V7.84h3.42Zm5.877 1.86c.4-.613.9-1.093 1.5-1.44.6-.36 1.267-.54 2-.54v3.62h-.94c-.853 0-1.493.187-1.92.56-.427.36-.64 1-.64 1.92V19h-3.42V7.84h3.42V9.7Zm16.155-1.86V19h-3.42v-1.52c-.347.493-.82.893-1.42 1.2-.587.293-1.24.44-1.96.44-.854 0-1.607-.187-2.26-.56-.654-.387-1.16-.94-1.52-1.66-.36-.72-.54-1.567-.54-2.54V7.84h3.4v6.06c0 .747.193 1.327.58 1.74.386.413.906.62 1.56.62.666 0 1.193-.207 1.58-.62.386-.413.58-.993.58-1.74V7.84h3.42Z" fill="#fff"/><path fill-rule="evenodd" clip-rule="evenodd" d="M28.433 6.288a.84.84 0 0 1-.022.248l-1.826 7.332a.832.832 0 0 1-.8.631l-10.954.056H3.873a.83.83 0 0 1-.806-.632l-1.825-7.36a.836.836 0 0 1-.022-.255 1.751 1.751 0 0 1 .523-3.42c.96 0 1.742.786 1.742 1.751A1.75 1.75 0 0 1 2.85 5.99l2.286 2.312c.578.585 1.38.92 2.2.92.969 0 1.893-.463 2.476-1.237l3.756-4.998A1.749 1.749 0 0 1 14.8 0a1.749 1.749 0 0 1 1.258 2.957l.004.004 3.729 5.012a3.11 3.11 0 0 0 2.482 1.249c.828 0 1.606-.324 2.191-.911l2.3-2.31a1.748 1.748 0 0 1 1.092-3.112 1.748 1.748 0 0 1 .578 3.399Zm-2.026 10.878a.832.832 0 0 0-.83-.834H4.113a.832.832 0 0 0-.83.834v2c0 .46.372.833.83.833h21.465c.459 0 .83-.373.83-.834v-2Z" fill="#fff"/></svg>