<svg width="1920" height="1000" fill="none" xmlns="http://www.w3.org/2000/svg"><path d="M-87 737c0-145.251 117.75-263 263-263 145.251 0 263 117.749 263 263s-117.749 263-263 263H-87V737Z" fill="#fff" fill-opacity=".07"/><path d="M2065 485c0 145.251-117.75 263-263 263s-263-117.749-263-263 117.75-263 263-263h263v263ZM-87 208C-87 62.75 30.75-55 176-55c145.251 0 263 117.75 263 263 0 145.251-117.749 263-263 263H-87V208ZM439 0h550v555c0 193.3-156.7 350-350 350H439V0Z" fill="#fff" fill-opacity=".03"/><path d="M1539 1000H989V572c0-193.3 156.7-350 350-350h200v778Zm0-1041c0-145.251 117.75-263 263-263s263 117.749 263 263-117.75 263-263 263h-263V-41Z" fill="#fff" fill-opacity=".07"/></svg>