<svg width="27" height="33" fill="none" xmlns="http://www.w3.org/2000/svg"><path d="M2.774 33a2.77 2.77 0 0 1-1.96-.814 2.763 2.763 0 0 1 .002-3.914 2.772 2.772 0 0 1 1.96-.814H3.8a7.635 7.635 0 0 1 .509-3.712c.587-1.283 1.666-2.294 3.557-3.537.327-.215.589-.381.85-.544 1.468-.926 3.029-1.912 3.029-2.9s-1.562-1.971-3.029-2.9a40 40 0 0 1-.85-.544c-1.963-1.29-3.055-2.39-3.626-3.772a8.683 8.683 0 0 1-.443-4H2.772a2.766 2.766 0 0 1-1.96-.814 2.76 2.76 0 0 1 0-3.915A2.76 2.76 0 0 1 2.768.006h21.453a2.761 2.761 0 0 1 1.956.814 2.764 2.764 0 0 1 0 3.918 2.767 2.767 0 0 1-1.96.814H23.2a8.683 8.683 0 0 1-.442 4c-.571 1.381-1.663 2.482-3.626 3.772-.332.22-.59.38-.851.545-1.467.925-3.029 1.911-3.029 2.9 0 .989 1.563 1.97 3.032 2.9.334.21.67.423.849.541 1.893 1.245 2.976 2.234 3.564 3.508a7.567 7.567 0 0 1 .5 3.74h1.025c.735 0 1.44.294 1.96.814a2.766 2.766 0 0 1 .002 3.918c-.52.52-1.225.813-1.96.814L2.774 33Zm0-1.979h21.453a.8.8 0 0 0 .74-1.098.793.793 0 0 0-.732-.493H2.774a.8.8 0 0 0-.734.492.8.8 0 0 0 .174.867c.149.148.35.232.56.232Zm6.995-9.695c-.308.194-.611.385-.821.523a7.25 7.25 0 0 0-2.845 2.71 6.063 6.063 0 0 0-.328 2.893H21.23a6.02 6.02 0 0 0-.325-2.914 7.289 7.289 0 0 0-2.851-2.687c-.357-.235-.585-.378-.818-.526-1.538-.969-3.153-1.987-3.734-3.419-.583 1.433-2.202 2.452-3.733 3.42Zm-3.7-12.527a6.942 6.942 0 0 0 2.884 2.876c.21.137.513.329.821.522 1.536.969 3.151 1.987 3.731 3.418.581-1.431 2.2-2.449 3.732-3.418.307-.193.615-.387.82-.522a6.934 6.934 0 0 0 2.884-2.876 7.13 7.13 0 0 0 .293-3.2H5.771A7.109 7.109 0 0 0 6.064 8.8h.005ZM2.216 2.208a.8.8 0 0 0 0 1.123.8.8 0 0 0 .563.234h21.453a.793.793 0 0 0 .795-.795.795.795 0 0 0-.796-.795H2.774a.8.8 0 0 0-.563.233h.005Z" fill="#F55767"/></svg>