<svg width="33" height="30" fill="none" xmlns="http://www.w3.org/2000/svg"><path d="M15.511 29.038V11.821l-4.414 4.33a1.007 1.007 0 0 1-1.4 0 .94.94 0 0 1 0-1.356l6.1-5.986a1.008 1.008 0 0 1 1.4 0l6.1 5.986a.942.942 0 0 1 0 1.356 1.006 1.006 0 0 1-1.394 0l-4.414-4.33v17.217a.99.99 0 0 1-1.978 0Zm6.023-8.26a.962.962 0 1 1 0-1.924h3.537a6.013 6.013 0 0 0 4.208-1.695 5.682 5.682 0 0 0 0-8.187 6.016 6.016 0 0 0-4.208-1.694 6.209 6.209 0 0 0-1.21.115.992.992 0 0 1-1.116-.59 7.744 7.744 0 0 0-2.906-3.552 8.058 8.058 0 0 0-10.013.915 7.537 7.537 0 0 0-2.308 5.42v.118a.97.97 0 0 1-.977.966h-.055l-.168-.007H6.19a4.253 4.253 0 0 0-2.977 1.2 4.015 4.015 0 0 0 0 5.792 4.255 4.255 0 0 0 2.977 1.2h4.752a.962.962 0 0 1 0 1.924H6.19a6.263 6.263 0 0 1-4.377-1.763 5.907 5.907 0 0 1 0-8.513 6.249 6.249 0 0 1 3.765-1.734 9.455 9.455 0 0 1 2.852-5.96 10.064 10.064 0 0 1 12.524-1.14 9.709 9.709 0 0 1 3.313 3.73 8.023 8.023 0 0 1 6.407 2.217 7.559 7.559 0 0 1 0 10.9 8.023 8.023 0 0 1-5.607 2.259l-3.533.003Z" fill="#D6AB00"/></svg>